{
  "accessors": [
    {
      "bufferView": 2,
      "componentType": 5126,
      "count": 1734,
      "max": [
        84.19189453125,
        84.19189453125,
        84.19189453125
      ],
      "min": [
        -84.19189453125,
        -84.19189453125,
        -84.19189453125
      ],
      "type": "VEC3"
    },
    {
      "bufferView": 2,
      "byteOffset": 20808,
      "componentType": 5126,
      "count": 1734,
      "max": [
        1.0,
        1.0,
        1.0
      ],
      "min": [
        -1.0,
        -1.0,
        -1.0
      ],
      "type": "VEC3"
    },
    {
      "bufferView": 1,
      "componentType": 5126,
      "count": 1734,
      "max": [
        0.9883245229721069,
        0.9922163486480713
      ],
      "min": [
        0.01167546957731247,
        0.007783651351928711
      ],
      "type": "VEC2"
    },
    {
      "bufferView": 0,
      "componentType": 5125,
      "count": 9216,
      "type": "SCALAR"
    }
  ],
  "asset": {
    "extras": {
      "author": "Victor.Alfonso.Ibarra.Ortega (https://sketchfab.com/Victor.Alfonso.Ibarra.Ortega)",
      "license": "CC-BY-4.0 (http://creativecommons.org/licenses/by/4.0/)",
      "source": "https://sketchfab.com/3d-models/pixar-luxo-ball-c141141280134fbd8739891da5d2fbb7",
      "title": "Pixar luxo ball"
    },
    "generator": "Sketchfab-13.42.0",
    "version": "2.0"
  },
  "bufferViews": [
    {
      "buffer": 0,
      "byteLength": 36864,
      "name": "floatBufferViews",
      "target": 34963
    },
    {
      "buffer": 0,
      "byteLength": 13872,
      "byteOffset": 36864,
      "byteStride": 8,
      "name": "floatBufferViews",
      "target": 34962
    },
    {
      "buffer": 0,
      "byteLength": 41616,
      "byteOffset": 50736,
      "byteStride": 12,
      "name": "floatBufferViews",
      "target": 34962
    }
  ],
  "buffers": [
    {
      "byteLength": 92352,
      "uri": "scene.bin"
    }
  ],
  "images": [
    {
      "uri": "textures/material_baseColor.png"
    }
  ],
  "materials": [
    {
      "doubleSided": true,
      "name": "material",
      "pbrMetallicRoughness": {
        "baseColorTexture": {
          "index": 0
        },
        "metallicFactor": 0.0,
        "roughnessFactor": 0.08114005680779224
      }
    }
  ],
  "meshes": [
    {
      "name": "Pelota_Pixar_Mat_0",
      "primitives": [
        {
          "attributes": {
            "NORMAL": 1,
            "POSITION": 0,
            "TEXCOORD_0": 2
          },
          "indices": 3,
          "material": 0,
          "mode": 4
        }
      ]
    }
  ],
  "nodes": [
    {
      "children": [
        1
      ],
      "matrix": [
        1.0,
        0.0,
        0.0,
        0.0,
        0.0,
        2.220446049250313e-16,
        -1.0,
        0.0,
        0.0,
        1.0,
        2.220446049250313e-16,
        0.0,
        0.0,
        0.0,
        0.0,
        1.0
      ],
      "name": "Sketchfab_model"
    },
    {
      "children": [
        2
      ],
      "matrix": [
        0.009999999776482582,
        0.0,
        0.0,
        0.0,
        0.0,
        0.0,
        0.009999999776482582,
        0.0,
        0.0,
        -0.009999999776482582,
        0.0,
        0.0,
        0.0,
        0.0,
        0.0,
        1.0
      ],
      "name": "Pelota Pixar f.fbx"
    },
    {
      "children": [
        3
      ],
      "name": "RootNode"
    },
    {
      "children": [
        4
      ],
      "matrix": [
        0.9322864433530713,
        0.0,
        -0.3617208696496244,
        0.0,
        0.0,
        1.0,
        0.0,
        0.0,
        0.3617208696496244,
        0.0,
        0.9322864433530713,
        0.0,
        0.0,
        0.0,
        0.0,
        1.0
      ],
      "name": "Pelota_Pixar"
    },
    {
      "mesh": 0,
      "name": "Pelota_Pixar_Mat_0"
    }
  ],
  "samplers": [
    {
      "magFilter": 9729,
      "minFilter": 9987,
      "wrapS": 10497,
      "wrapT": 10497
    }
  ],
  "scene": 0,
  "scenes": [
    {
      "name": "Sketchfab_Scene",
      "nodes": [
        0
      ]
    }
  ],
  "textures": [
    {
      "sampler": 0,
      "source": 0
    }
  ]
}
