<svg width="536" height="65" viewBox="0 0 536 65" fill="none" xmlns="http://www.w3.org/2000/svg">
<path d="M485.616 51.3841L517.257 12.0285H483.865L488.594 0.683594H532.978V12.0285L501.247 51.3841H535.739L531.01 62.8373H485.616V51.3841Z" fill="#5440DA"/>
<path d="M471.447 12.0285H449.643V62.8373H437.514V12.0285H411.089L415.818 0.683594H476.176L471.447 12.0285Z" fill="#5440DA"/>
<path d="M387.462 63.5786V4.72556L399.591 0V63.5786H387.462Z" fill="#5440DA"/>
<path d="M363.33 0.683594H376.037L356.345 62.8373H341.201L328.981 15.708L316.744 62.8373H302.105L282.395 0.683594H295.788L309.47 48.7688L321.888 0.683594H337.122L349.648 48.7688L363.33 0.683594Z" fill="#5440DA"/>
<path d="M245.628 0C254.455 0 262.126 3.19246 268.425 9.50522C274.724 15.9082 277.829 23.5556 277.829 32.4837C277.829 41.4117 274.724 49.0592 268.425 55.372C262.126 61.6667 254.455 64.8772 245.628 64.8772C236.802 64.8772 229.221 61.6667 222.922 55.372C216.623 49.0772 213.5 41.4117 213.5 32.4837C213.5 23.5556 216.604 15.818 222.922 9.50522C229.221 3.19246 236.802 0 245.628 0ZM259.31 46.8407C263.1 42.8547 264.941 38.1111 264.941 32.4837C264.941 26.8563 263.1 22.0045 259.31 18.0365C255.519 14.0684 250.971 12.1205 245.628 12.1205C240.286 12.1205 235.827 14.0684 232.055 18.0365C228.265 22.0045 226.423 26.8563 226.423 32.4837C226.423 38.1111 228.265 42.7645 232.055 46.7325C235.845 50.7005 240.304 52.7386 245.628 52.7386C250.953 52.7386 255.537 50.7907 259.31 46.8227" fill="#5440DA"/>
<path d="M192.238 30.9308C197.273 28.8926 201.551 24.5278 201.551 17.9445C201.551 12.8943 199.602 8.72786 195.721 5.5354C191.75 2.32491 186.895 0.683594 180.975 0.683594H153.052V62.8373H182.437C188.934 62.8373 193.988 61.196 197.761 57.7871C201.443 54.3962 203.284 50.32 203.284 45.378C203.284 38.0191 198.717 32.8787 192.219 30.9308H192.238ZM181.173 52.0695H165.181V11.4514H179.819C185.162 11.4514 188.934 14.5536 188.934 18.9185C188.934 23.2833 185.054 26.3856 179.91 26.3856H173.827L169.982 36.3778H181.263C186.696 36.3778 190.577 39.5702 190.577 44.1334C190.577 48.6967 186.606 52.0875 181.173 52.0875V52.0695Z" fill="#5440DA"/>
<path d="M123.703 63.5786V4.72556L135.833 0V63.5786H123.703Z" fill="#5440DA"/>
<path d="M62.7497 62.8713V1.36694H106.376V12.5856H74.7527V26.2212H102.549V37.5301H74.7527V51.5444H106.376V62.8713H62.7497Z" fill="#5440DA"/>
<path d="M12.6982 51.5104V0.683594H0.568848V62.9635H45.5845L49.9886 51.5104H12.6982Z" fill="#5440DA"/>
</svg>
