<?xml version="1.0" encoding="utf-8"?>
<!-- Generator: Adobe Illustrator 28.0.0, SVG Export Plug-In . SVG Version: 6.00 Build 0)  -->
<svg version="1.1" id="Layer_1" xmlns="http://www.w3.org/2000/svg" xmlns:xlink="http://www.w3.org/1999/xlink" x="0px" y="0px"
	 viewBox="0 0 200 200" style="enable-background:new 0 0 200 200;" xml:space="preserve">
<style type="text/css">
	.st0{fill:#FFFFFF;}
</style>
<g id="Layer_2_00000083772931454973332510000010671456338296299451_">
</g>
<g id="Snow">
	<g id="Check_-_Orange">
	</g>
	<g id="Reload_-_Orange">
	</g>
</g>
<g id="Layer_6">
</g>
<g id="Happy_Holidays">
</g>
<g>
	<path class="st0" d="M100.24,124.07c-13.12,0-23.8-10.67-23.8-23.8c0-13.12,10.68-23.81,23.8-23.81c5.63,0,10.8,1.98,14.87,5.26
		l-11.8,10.21l31.08,4.59l-0.06-31.41l-10.91,9.44c-6.13-5.53-14.25-8.92-23.18-8.92c-19.13,0-34.63,15.52-34.63,34.64
		c0,19.13,15.5,34.63,34.63,34.63c15,0,27.78-9.54,32.58-22.88l-11.06-1.64C117.95,118.45,109.75,124.07,100.24,124.07z"/>
</g>
</svg>
