<svg width="49" height="65" viewBox="0 0 49 65" fill="none" xmlns="http://www.w3.org/2000/svg">
<g clip-path="url(#clip0_205_4679)">
<path d="M24.1325 56.2693C20.8057 42.2492 16.6076 37.1886 5.28943 32.8145C16.6076 28.4491 20.8057 23.3885 24.1325 9.35962C27.4593 23.3797 31.6574 28.4403 42.9756 32.8145C31.6574 37.1798 27.4593 42.2404 24.1325 56.2693Z" fill="#FFB55E"/>
<path d="M24.1325 15.8988C27.0281 24.6734 30.9974 29.2324 38.5047 32.8232C30.9886 36.414 27.0193 40.9642 24.1325 49.7477C21.237 40.973 17.2677 36.414 9.76039 32.8232C17.2765 29.2324 21.2458 24.6822 24.1325 15.8988ZM24.1325 0.637695C20.04 22.9308 16.722 27.3577 0 32.8144C16.722 38.2711 20.04 42.698 24.1325 64.9911C28.225 42.698 31.543 38.2711 48.2651 32.8144C31.5518 27.3577 28.2338 22.9308 24.1325 0.637695Z" fill="#FFB55E"/>
</g>
<defs>
<clipPath id="clip0_205_4679">
<rect width="48.2739" height="64.3622" fill="white" transform="translate(0 0.637695)"/>
</clipPath>
</defs>
</svg>
