<svg width="50" height="65" viewBox="0 0 50 65" fill="none" xmlns="http://www.w3.org/2000/svg">
<g id="Happy_Holidays" clip-path="url(#clip0_205_4682)">
<path id="Vector" d="M25.0209 56.2693C21.6941 42.2492 17.496 37.1886 6.17778 32.8145C17.496 28.4491 21.6941 23.3885 25.0209 9.35962C28.3477 23.3797 32.5458 28.4403 43.864 32.8145C32.5458 37.1798 28.3477 42.2404 25.0209 56.2693Z" fill="#D3D3D7"/>
<path id="Vector_2" d="M25.0209 15.8988C27.9164 24.6734 31.8857 29.2324 39.393 32.8232C31.8769 36.414 27.9076 40.9642 25.0209 49.7477C22.1253 40.973 18.156 36.414 10.6487 32.8232C18.1648 29.2324 22.1341 24.6822 25.0209 15.8988ZM25.0209 0.637695C20.9284 22.9308 17.6104 27.3577 0.888336 32.8144C17.6104 38.2711 20.9284 42.698 25.0209 64.9911C29.1134 42.698 32.4314 38.2711 49.1534 32.8144C32.4402 27.3577 29.1222 22.9308 25.0209 0.637695Z" fill="#D3D3D7"/>
</g>
<defs>
<clipPath id="clip0_205_4682">
<rect width="48.2739" height="64.3622" fill="white" transform="translate(0.888336 0.637695)"/>
</clipPath>
</defs>
</svg>
