<?xml version="1.0" encoding="utf-8"?>
<!-- Generator: Adobe Illustrator 28.0.0, SVG Export Plug-In . SVG Version: 6.00 Build 0)  -->
<svg version="1.1" xmlns="http://www.w3.org/2000/svg" xmlns:xlink="http://www.w3.org/1999/xlink" x="0px" y="0px"
	 viewBox="0 0 1920 1080" style="enable-background:new 0 0 1920 1080;" xml:space="preserve">
<style type="text/css">
	.Illuminating_x0020_Aqua{fill:url(#SVGID_1_);stroke:#FFFFFF;stroke-width:0.25;stroke-miterlimit:1;}
	.st0{fill:#33374C;}
	.st1{opacity:0.5;}
	.st2{fill:none;stroke:#FFFFFF;stroke-width:0.9586;stroke-linejoin:round;stroke-miterlimit:10;}
	.st3{fill:none;stroke:#FFFFFF;stroke-width:0.9586;stroke-miterlimit:10;}
	.st4{fill:#FFFFFF;}
	.st5{clip-path:url(#SVGID_00000030462302011730436080000014226209887660702861_);}
	.st6{opacity:0.3;}
	.st7{fill:#FFE1BF;stroke:#33374C;stroke-width:3.6543;stroke-miterlimit:10;}
	.st8{fill:#FF7866;stroke:#33374C;stroke-width:3.6543;stroke-miterlimit:10;}
	.st9{fill:#A8CECF;stroke:#33374C;stroke-width:3.6543;stroke-miterlimit:10;}
	.st10{fill:#988CE9;stroke:#33374C;stroke-width:3.6543;stroke-miterlimit:10;}
	.st11{fill:#FFB55E;stroke:#33374C;stroke-width:3.6543;stroke-miterlimit:10;}
	.st12{fill:#80CB9E;stroke:#33374C;stroke-width:3.6543;stroke-miterlimit:10;}
	.st13{fill:#BBB3F0;}
	.st14{fill:#FFB55E;}
	.st15{fill:#FF7866;}
	.st16{fill:#988CE9;}
	.st17{fill:#FF9385;}
	.st18{fill:#262939;}
	.st19{fill:#D3E7E7;}
	.st20{fill:#80CB9E;}
	.st21{fill:#99D5B1;}
	.st22{fill:#FFE1BF;}
	.st23{fill:none;}
	.st24{fill:#A8CECF;}
	.st25{fill:#FFC47E;}
	.st26{fill:#92C2C3;stroke:#33374C;stroke-width:4;stroke-miterlimit:10;}
	.st27{fill:#80CB9E;stroke:#33374C;stroke-width:4;stroke-miterlimit:10;}
	.st28{fill:#A99FEC;stroke:#33374C;stroke-width:4;stroke-miterlimit:10;}
	.st29{fill:#FF7866;stroke:#33374C;stroke-width:4;stroke-miterlimit:10;}
</style>
<linearGradient id="SVGID_1_" gradientUnits="userSpaceOnUse" x1="-8099.9492" y1="-2521.9387" x2="-8099.9492" y2="-2522.9387">
	<stop  offset="0" style="stop-color:#1D59F4"/>
	<stop  offset="0.618" style="stop-color:#2D65EE"/>
	<stop  offset="0.6292" style="stop-color:#3864F3"/>
	<stop  offset="0.9831" style="stop-color:#00DDFC"/>
</linearGradient>
<g id="Layer_2">
</g>
<g id="Snow">
	<g id="Check_-_Orange">
	</g>
	<g id="Reload_-_Orange">
	</g>
</g>
<g id="Layer_6">
</g>
<g id="Happy_Holidays">
	<g>
		<g>
			<g>
				<path class="st26" d="M810.09,477.68c-2.22,1.68-3.92,3.22-5.12,4.65c-1.19,1.42-1.92,2.52-2.19,3.28
					c-0.27,0.76-0.48,1.73-0.67,2.92c-3.5,25.34-7,50.68-10.5,76c-0.09,0.64-0.14,1.4-0.13,2.28c0,2.48,1.81,4.63,5.45,6.42
					c-0.04,0.45-0.09,0.9-0.13,1.35c-13.73,2.6-27.46,5.02-41.19,7.21c0.04-0.45,0.09-0.9,0.13-1.35c2.3-1.61,4.05-3.13,5.25-4.57
					c1.2-1.43,1.91-2.48,2.13-3.14c0.22-0.66,0.42-1.62,0.6-2.89c1.77-12.92,3.54-25.84,5.31-38.76
					c-10.63,1.81-21.26,3.49-31.89,5.02c-1.77,12.74-3.54,25.48-5.31,38.22c-0.1,0.63-0.13,1.39-0.13,2.28
					c0,2.48,1.81,4.71,5.45,6.67c-0.04,0.45-0.09,0.9-0.13,1.35c-13.73,1.97-27.46,3.68-41.19,5.06c0.04-0.45,0.09-0.89,0.13-1.34
					c2.29-1.47,4.05-2.9,5.25-4.27c1.2-1.37,1.9-2.38,2.13-3.02c0.22-0.64,0.42-1.59,0.6-2.85c3.45-25.05,6.91-50.12,10.37-75.21
					c0.17-1.26,0.27-2.07,0.27-2.42c0-2.48-1.82-4.69-5.45-6.66c0.04-0.45,0.09-0.9,0.13-1.34c13.73-1.59,27.46-3.48,41.19-5.61
					c-0.04,0.45-0.09,0.9-0.13,1.35c-2.21,1.59-3.92,3.06-5.12,4.44c-1.2,1.38-1.93,2.44-2.19,3.19c-0.26,0.75-0.49,1.71-0.66,2.89
					c-1.68,11.99-3.37,23.97-5.05,35.95c10.63-1.53,21.26-3.21,31.89-5.02c1.64-11.88,3.28-23.77,4.92-35.66
					c0.18-1.27,0.26-2.08,0.27-2.44c0-2.48-1.82-4.6-5.45-6.37c0.04-0.45,0.09-0.9,0.13-1.35c13.73-2.34,27.46-4.89,41.19-7.59
					C810.17,476.78,810.13,477.23,810.09,477.68z"/>
				<path class="st26" d="M836.12,566.08c-2.84,1.92-6.07,3.26-9.7,4c-13.28,2.72-19.93-3.91-19.93-19.67
					c0-5.05,0.53-10.13,1.59-15.26c1.06-5.12,2.79-10.31,5.18-15.57c2.39-5.26,5.92-9.81,10.56-13.68
					c4.66-3.87,10.12-6.46,16.41-7.78c6.03-1.27,11.56-0.9,16.61,1.11c8.64-3.41,17.27-6.86,25.91-10.32
					c0.44-0.1,0.89-0.2,1.33-0.29c-2.66,19.63-5.32,39.27-7.97,58.9c-0.27,1.74-0.05,2.78,0.67,3.11c0.71,0.33,2.25,0.23,4.65-0.3
					c-0.04,0.45-0.09,0.91-0.13,1.36c-2.38,2.57-5.38,4.84-8.97,6.83c-3.58,1.98-7.06,3.34-10.43,4.07
					c-3.81,0.83-6.72,0.74-8.7-0.25c-1.99-0.99-3.17-2.33-3.52-4.03c-0.35-1.69-0.35-3.82,0-6.38c-0.09,0.02-0.18,0.04-0.27,0.06
					C844.98,556.69,840.55,561.39,836.12,566.08z M856.59,500.74c-2.56-0.42-4.79-0.44-6.64-0.04c-3.01,0.64-5.63,2.73-7.84,6.25
					c-2.21,3.52-3.87,7.68-4.98,12.47c-1.11,4.79-1.9,9.26-2.39,13.39c-0.49,4.13-0.73,7.84-0.73,11.11
					c0,8.59,2.48,12.38,7.44,11.33c2.57-0.54,5.36-2.15,8.37-4.83C852.07,533.87,854.33,517.31,856.59,500.74z"/>
				<path class="st26" d="M937.9,478.61c2.84-1.96,6.06-3.34,9.7-4.14c13.2-2.9,19.8,3.62,19.8,19.48c0,5.05-0.53,10.12-1.59,15.22
					c-1.06,5.1-2.77,10.3-5.12,15.59c-2.34,5.29-5.85,9.91-10.5,13.85c-4.65,3.94-10.12,6.61-16.41,8.01
					c-5.49,1.22-10.24,1.17-14.22-0.16c0.09-0.64,0.18-1.28,0.26-1.92c1.42,0.04,2.83-0.1,4.25-0.42c3.01-0.67,5.63-2.78,7.84-6.33
					c2.21-3.55,3.85-7.72,4.92-12.52c1.07-4.8,1.84-9.27,2.33-13.4c0.49-4.14,0.73-7.85,0.73-11.12c0-8.59-2.48-12.34-7.44-11.24
					c-2.57,0.57-5.36,2.21-8.37,4.92c-3.32,24.26-6.64,48.52-9.97,72.78c-0.18,1.28-0.26,2.27-0.26,2.98c0,2.57,1.82,4.64,5.45,6.22
					c-0.04,0.45-0.09,0.91-0.13,1.36c-13.29,2.97-26.58,5.95-39.86,8.88c0.04-0.45,0.09-0.9,0.13-1.36c2.3-1.75,4.05-3.36,5.25-4.82
					c1.2-1.46,1.93-2.58,2.19-3.34c0.27-0.77,0.44-1.74,0.53-2.91c3.32-24.21,6.64-48.43,9.97-72.64c0.27-2.45,0.4-3.81,0.4-4.08
					c0-3.9-1.73-6.61-5.18-8.15c0.04-0.45,0.09-0.91,0.13-1.36c10.85-2.42,21.7-4.85,32.55-7.27c-0.31,4.06-0.62,8.11-0.93,12.16
					c0.09-0.02,0.18-0.04,0.26-0.06C929.04,488.1,933.47,483.35,937.9,478.61z"/>
				<path class="st26" d="M1018.95,461.6c2.84-1.88,6.07-3.16,9.7-3.83c13.2-2.46,19.8,4.37,19.8,20.22c0,5.05-0.53,10.1-1.59,15.16
					c-1.06,5.06-2.77,10.19-5.12,15.39c-2.34,5.2-5.84,9.68-10.5,13.47c-4.65,3.78-10.12,6.28-16.41,7.5
					c-5.49,1.07-10.24,0.91-14.22-0.5c0.09-0.64,0.18-1.28,0.26-1.91c1.42,0.07,2.84-0.04,4.25-0.32c3.02-0.6,5.62-2.64,7.84-6.14
					c2.22-3.49,3.85-7.61,4.92-12.38c1.07-4.77,1.84-9.21,2.33-13.34c0.48-4.12,0.73-7.82,0.73-11.1c0-8.59-2.48-12.42-7.44-11.45
					c-2.56,0.5-5.36,2.07-8.37,4.71c-3.32,24.18-6.64,48.37-9.97,72.57c-0.18,1.28-0.27,2.27-0.26,2.98c0,2.57,1.82,4.68,5.45,6.33
					c-0.04,0.45-0.09,0.9-0.13,1.35c-13.29,2.69-26.58,5.5-39.86,8.38c0.04-0.45,0.09-0.9,0.13-1.36c2.3-1.74,4.06-3.34,5.25-4.79
					c1.19-1.45,1.93-2.57,2.19-3.33c0.26-0.76,0.44-1.73,0.53-2.9c3.32-24.19,6.64-48.37,9.97-72.55c0.27-2.45,0.4-3.81,0.4-4.07
					c0-3.9-1.73-6.63-5.18-8.2c0.04-0.45,0.09-0.9,0.13-1.36c10.85-2.31,21.7-4.56,32.55-6.73c-0.31,4.05-0.62,8.1-0.93,12.14
					c0.09-0.02,0.18-0.04,0.26-0.05C1010.09,470.85,1014.52,466.21,1018.95,461.6z"/>
				<path class="st26" d="M1058.67,469.34c-1.6-7.18-4.04-11.51-7.31-12.99c0.04-0.45,0.09-0.9,0.13-1.35
					c13.86-2.37,27.73-4.53,41.59-6.4c-0.04,0.45-0.09,0.9-0.13,1.35c-4.52,2.12-6.77,4.71-6.78,7.72c0,0.8,0.22,2.05,0.67,3.76
					c3.45,14.48,6.91,28.98,10.36,43.5c0.62-1.19,1.24-2.38,1.86-3.56c3.01-5.7,5.49-12.22,7.44-19.54
					c1.95-7.32,2.92-13.95,2.92-19.89c0-3.72-0.89-6.89-2.66-9.51c-1.77-2.62-3.81-3.78-6.11-3.49c0.05-0.45,0.09-0.9,0.13-1.35
					c3.09-1.28,6.25-2.11,9.43-2.49c8.33-0.98,12.49,1.8,12.49,8.18c0,5.32-3.41,14.11-10.23,26.51
					c-6.6,11.92-13.2,23.92-19.8,35.97c-6.2,11.47-13.02,21.98-20.46,31.54c-8.9,1.37-17.81,2.85-26.71,4.41
					c0.04-0.45,0.09-0.9,0.13-1.35c8.77-3.84,17.6-9.03,26.51-15.54c8.9-6.51,15.3-12.76,19.2-18.88
					c-6.87,0.94-13.73,1.95-20.6,3.02C1066.73,502.39,1062.7,485.86,1058.67,469.34z"/>
				<path class="st26" d="M737.01,649.72c-2.22,1.56-3.92,3.01-5.12,4.37c-1.2,1.36-1.92,2.41-2.19,3.16
					c-0.26,0.75-0.49,1.71-0.66,2.88c-3.5,25.15-7,50.27-10.5,75.38c-0.09,0.63-0.13,1.39-0.13,2.28c0,2.48,1.82,4.74,5.45,6.74
					c-0.04,0.45-0.09,0.9-0.13,1.35c-13.73,1.79-27.46,3.31-41.19,4.48c0.04-0.45,0.09-0.89,0.13-1.34c2.3-1.44,4.05-2.83,5.25-4.18
					c1.2-1.35,1.91-2.35,2.12-2.99c0.22-0.64,0.42-1.59,0.6-2.85c1.77-12.79,3.54-25.59,5.31-38.39
					c-10.63,1.07-21.26,1.96-31.89,2.61c-1.77,12.6-3.54,25.19-5.31,37.78c-0.08,0.63-0.13,1.38-0.13,2.27
					c0.01,2.48,1.82,4.87,5.45,7.12c-0.04,0.45-0.09,0.89-0.13,1.34c-13.73,0.85-27.46,1.33-41.19,1.37
					c0.05-0.44,0.09-0.89,0.13-1.33c2.3-1.25,4.05-2.51,5.25-3.76c1.2-1.25,1.9-2.2,2.13-2.82c0.22-0.62,0.42-1.56,0.6-2.8
					c3.46-24.72,6.91-49.47,10.37-74.25c0.17-1.25,0.26-2.05,0.26-2.4c0-2.48-1.82-4.85-5.45-7.16c0.04-0.44,0.09-0.89,0.13-1.33
					c13.73-0.32,27.46-1.05,41.19-2.14c-0.04,0.45-0.09,0.89-0.13,1.34c-2.21,1.41-3.92,2.76-5.12,4.04
					c-1.19,1.28-1.92,2.29-2.19,3.01c-0.26,0.73-0.49,1.67-0.67,2.84c-1.68,11.85-3.37,23.7-5.05,35.54
					c10.63-0.66,21.26-1.54,31.89-2.62c1.64-11.77,3.28-23.54,4.92-35.32c0.18-1.26,0.26-2.07,0.27-2.42c0-2.48-1.81-4.72-5.45-6.74
					c0.04-0.45,0.09-0.9,0.13-1.34c13.73-1.39,27.46-3.1,41.19-5.07C737.1,648.82,737.05,649.27,737.01,649.72z"/>
				<path class="st26" d="M766.77,740.74c-10.45,1.76-18.54,0.47-24.25-3.73c-5.71-4.2-8.57-10.77-8.57-19.62
					c0-3.45,0.42-7.01,1.26-10.67c0.84-3.66,2.3-7.48,4.38-11.46c2.08-3.98,4.7-7.62,7.84-10.94c3.15-3.32,7.22-6.25,12.23-8.84
					c5-2.59,10.61-4.41,16.81-5.5c10.45-1.84,18.51-0.84,24.18,3.13c5.67,3.96,8.5,10.35,8.5,19.21c0,3.37-0.4,6.87-1.2,10.53
					c-0.8,3.65-2.24,7.52-4.32,11.6c-2.08,4.08-4.65,7.85-7.71,11.3c-3.05,3.46-7.1,6.56-12.16,9.29
					C778.73,737.77,773.06,739.68,766.77,740.74z M776.2,671.35c-2.75,0.48-5.16,2.38-7.24,5.7c-2.08,3.32-3.7,7.16-4.85,11.51
					c-1.15,4.35-2.08,9.27-2.79,14.74c-0.7,5.48-1.15,10.13-1.33,13.97c-0.18,3.84-0.26,7.4-0.27,10.67c0,4.52,0.55,7.66,1.66,9.43
					c1.11,1.77,2.95,2.44,5.51,2.01c3.28-0.55,6.11-3.19,8.5-7.91c2.39-4.71,4.12-10.43,5.18-17.13c1.07-6.7,1.81-12.7,2.26-18.01
					c0.44-5.31,0.66-10.04,0.67-14.2c0-4.52-0.58-7.56-1.73-9.12C780.64,671.45,778.76,670.9,776.2,671.35z"/>
				<path class="st26" d="M825.49,647.32c0.27-2.45,0.4-3.8,0.4-4.07c0-3.9-1.73-6.64-5.18-8.25c0.04-0.45,0.09-0.9,0.13-1.36
					c11.07-2.24,22.15-4.56,33.22-6.94c-3.99,29.2-7.97,58.4-11.96,87.59c-0.27,1.74-0.05,2.78,0.66,3.12
					c0.7,0.34,2.26,0.25,4.65-0.26c-0.04,0.45-0.09,0.91-0.13,1.36c-2.39,2.55-5.38,4.8-8.97,6.74c-3.59,1.95-7.07,3.27-10.43,3.96
					c-5.23,1.07-8.7,0.57-10.43-1.47c-1.73-2.04-2.37-4.71-1.93-7.99C818.85,695.62,822.17,671.48,825.49,647.32z"/>
				<path class="st26" d="M863.89,668.43c0.13-1.36,0.27-2.72,0.4-4.07c0-3.9-1.73-6.62-5.18-8.18c0.04-0.45,0.09-0.91,0.13-1.36
					c11.07-2.4,22.15-4.84,33.22-7.31c-2.61,19.18-5.23,38.37-7.84,57.55c-0.26,1.74-0.04,2.78,0.66,3.11
					c0.71,0.33,2.26,0.23,4.65-0.3c-0.04,0.45-0.09,0.91-0.13,1.36c-2.39,2.57-5.38,4.85-8.97,6.84c-3.59,1.99-7.07,3.35-10.43,4.09
					c-5.23,1.14-8.7,0.7-10.43-1.31c-1.74-2.02-2.37-4.67-1.93-7.95C859.99,696.74,861.94,682.59,863.89,668.43z M872,625.07
					c2.74-3,6.16-4.94,10.23-5.84c3.28-0.73,5.96-0.46,8.04,0.81c2.08,1.26,3.12,3.36,3.12,6.28c0,3.98-1.39,7.47-4.19,10.43
					c-2.79,2.97-6.17,4.89-10.16,5.77c-3.37,0.75-6.07,0.49-8.11-0.74c-2.05-1.24-3.05-3.32-3.06-6.24
					C867.87,631.55,869.25,628.07,872,625.07z"/>
				<path class="st26" d="M926.47,705.7c-2.84,1.96-6.07,3.34-9.7,4.16c-13.29,2.97-19.94-3.43-19.93-19.2
					c0-5.05,0.53-10.15,1.59-15.3c1.07-5.15,2.79-10.39,5.18-15.71c2.39-5.32,5.92-9.96,10.56-13.92
					c4.65-3.96,10.12-6.64,16.41-8.05c5.41-1.2,10.1-1.13,14.08,0.2c-0.09,0.64-0.18,1.28-0.26,1.92c-1.42-0.04-2.79,0.08-4.12,0.38
					c-3.02,0.67-5.62,2.77-7.84,6.32c-2.22,3.55-3.88,7.73-4.98,12.54c-1.1,4.81-1.9,9.28-2.39,13.42
					c-0.49,4.14-0.73,7.85-0.73,11.12c0,8.59,2.48,12.33,7.44,11.23c2.57-0.57,5.36-2.21,8.37-4.91c3.19-23.25,6.38-46.5,9.57-69.74
					c0.27-2.45,0.4-3.81,0.4-4.07c0-3.9-1.73-6.62-5.18-8.16c0.04-0.45,0.09-0.91,0.13-1.36c11.07-2.44,22.15-4.85,33.22-7.19
					c-3.94,29.18-7.88,58.37-11.83,87.56c-0.27,1.74-0.04,2.78,0.67,3.11c0.71,0.34,2.26,0.25,4.65-0.27
					c-0.04,0.45-0.09,0.91-0.13,1.36c-2.39,2.55-5.38,4.8-8.97,6.78c-3.59,1.97-7.06,3.33-10.43,4.06c-3.81,0.83-6.71,0.77-8.7-0.21
					c-1.99-0.98-3.17-2.31-3.52-4.01c-0.35-1.69-0.35-3.82,0-6.38c-0.09,0.02-0.18,0.04-0.27,0.06
					C935.33,696.2,930.9,700.95,926.47,705.7z"/>
				<path class="st26" d="M1008.18,688.25c-2.83,1.89-6.07,3.2-9.7,3.94c-13.29,2.71-19.93-3.74-19.93-19.52
					c0-5.05,0.54-10.15,1.59-15.29c1.06-5.14,2.79-10.35,5.18-15.64c2.39-5.28,5.91-9.87,10.56-13.74
					c4.66-3.87,10.11-6.44,16.41-7.67c6.03-1.18,11.56-0.69,16.61,1.47c8.64-3.16,17.27-6.25,25.91-9.26
					c0.44-0.07,0.89-0.15,1.33-0.22c-2.66,19.49-5.32,38.99-7.97,58.49c-0.26,1.73-0.04,2.78,0.67,3.14
					c0.71,0.36,2.26,0.34,4.65-0.07c-0.04,0.45-0.09,0.9-0.13,1.35c-2.38,2.44-5.38,4.57-8.97,6.4c-3.58,1.83-7.06,3.05-10.43,3.67
					c-3.81,0.7-6.72,0.54-8.7-0.51c-1.99-1.04-3.17-2.41-3.52-4.12c-0.35-1.7-0.35-3.83,0-6.38c-0.09,0.02-0.18,0.03-0.27,0.05
					C1017.04,678.98,1012.61,683.6,1008.18,688.25z M1028.64,623.31c-2.57-0.49-4.78-0.56-6.64-0.21c-3.01,0.58-5.63,2.61-7.84,6.1
					c-2.21,3.49-3.87,7.62-4.98,12.41c-1.11,4.78-1.9,9.24-2.39,13.36c-0.49,4.13-0.73,7.83-0.73,11.11c0,8.6,2.48,12.39,7.44,11.42
					c2.57-0.5,5.36-2.06,8.37-4.67C1024.13,656.32,1026.38,639.81,1028.64,623.31z"/>
				<path class="st26" d="M1068.63,627.17c-1.6-7.19-4.03-11.54-7.31-13.05c0.04-0.45,0.09-0.9,0.13-1.35
					c13.86-2.26,27.73-4.3,41.59-6.04c-0.04,0.45-0.09,0.9-0.13,1.34c-4.52,2.07-6.78,4.64-6.78,7.65c0,0.8,0.22,2.05,0.67,3.77
					c3.46,14.52,6.91,29.05,10.37,43.6c0.62-1.18,1.24-2.36,1.86-3.55c3.01-5.68,5.49-12.16,7.44-19.46
					c1.95-7.3,2.92-13.92,2.92-19.85c0-3.72-0.88-6.9-2.66-9.54c-1.77-2.64-3.81-3.82-6.11-3.55c0.04-0.45,0.09-0.9,0.13-1.34
					c3.1-1.25,6.24-2.05,9.44-2.39c8.33-0.89,12.48,1.94,12.49,8.32c0,5.32-3.41,14.08-10.23,26.39
					c-6.6,11.85-13.2,23.78-19.8,35.77c-6.21,11.41-13.02,21.85-20.46,31.35c-8.9,1.3-17.8,2.7-26.71,4.2
					c0.04-0.45,0.09-0.9,0.13-1.35c8.77-3.78,17.61-8.89,26.51-15.32c8.9-6.44,15.3-12.62,19.2-18.7
					c-6.86,0.87-13.73,1.82-20.6,2.83C1076.69,660.29,1072.66,643.72,1068.63,627.17z"/>
				<path class="st26" d="M1167.16,650.45c-2.08-1.85-4.61-3.46-7.57-4.84c-2.96-1.37-5.93-2.82-8.9-4.34
					c-2.96-1.51-5.5-3.62-7.57-6.33c-2.08-2.71-3.12-5.92-3.12-9.64c-0.01-2.66,0.56-5.3,1.66-7.91c1.11-2.61,2.89-5.29,5.31-7.99
					c2.43-2.71,6.05-5.01,10.83-6.86c4.78-1.84,10.45-2.93,17.01-3.18c9.12-0.35,17.01,0.84,23.65,3.47
					c-2.75,6.26-5.49,12.53-8.24,18.82c-0.35,0.09-0.71,0.19-1.06,0.28c-1.15-7.77-2.67-13.3-4.58-16.58
					c-1.9-3.27-4.72-4.86-8.44-4.72c-3.28,0.12-5.91,1.19-7.9,3.19c-1.99,2-2.99,4.29-2.99,6.86c0,2.39,1,4.46,2.99,6.23
					c1.99,1.76,4.43,3.32,7.31,4.67c2.88,1.35,5.76,2.81,8.64,4.38c2.88,1.57,5.31,3.72,7.31,6.43c1.99,2.72,2.99,5.94,2.99,9.66
					c0,2.92-0.54,5.76-1.59,8.52c-1.06,2.76-2.81,5.53-5.25,8.32c-2.44,2.8-6.14,5.1-11.09,6.96c-4.96,1.86-10.91,2.97-17.81,3.39
					c-9.21,0.56-17,0.31-23.38-0.89c0.35-6.85,0.71-13.7,1.06-20.56c0.18-0.1,0.35-0.21,0.53-0.31c1.24,2.9,2.35,5.27,3.32,7.09
					c0.97,1.82,2.37,3.97,4.18,6.44c1.82,2.47,3.94,4.28,6.38,5.44c2.44,1.16,5.12,1.64,8.04,1.47c3.55-0.21,6.33-1.47,8.37-3.78
					c2.04-2.31,3.06-4.75,3.06-7.32C1170.28,654.42,1169.23,652.3,1167.16,650.45z"/>
			</g>
		</g>
		<g>
			<path class="st25" d="M829.95,416.04c-1.98-7.55-4.6-10.64-10.83-13.2c6.23-2.56,8.85-5.65,10.83-13.2
				c1.98,7.55,4.6,10.64,10.83,13.2C834.55,405.4,831.93,408.49,829.95,416.04z"/>
			<path class="st18" d="M829.95,394.45c1.57,3.86,3.76,6.36,7.45,8.38c-3.7,2.02-5.88,4.52-7.45,8.38
				c-1.57-3.86-3.76-6.36-7.45-8.38C826.19,400.81,828.37,398.31,829.95,394.45 M829.95,382.66c-2.57,13.98-4.65,16.75-15.13,20.18
				c10.48,3.42,12.56,6.2,15.13,20.18c2.57-13.98,4.65-16.75,15.13-20.18C834.59,399.41,832.51,396.64,829.95,382.66L829.95,382.66z
				"/>
		</g>
		<g>
			<path class="st25" d="M1168.95,547.17c-3.54-13.49-8.22-19.01-19.35-23.59c11.13-4.58,15.81-10.1,19.35-23.59
				c3.54,13.49,8.22,19.01,19.36,23.59C1177.17,528.16,1172.49,533.68,1168.95,547.17z"/>
			<path class="st18" d="M1168.95,508.61c2.81,6.9,6.71,11.36,13.32,14.98c-6.6,3.62-10.5,8.08-13.32,14.98
				c-2.81-6.9-6.71-11.36-13.32-14.98C1162.24,519.97,1166.14,515.5,1168.95,508.61 M1168.95,487.53
				c-4.59,24.98-8.31,29.94-27.04,36.05c18.73,6.12,22.45,11.07,27.04,36.05c4.59-24.98,8.31-29.93,27.04-36.05
				C1177.26,517.47,1173.54,512.51,1168.95,487.53L1168.95,487.53z"/>
		</g>
		<g>
			<g>
				<path class="st25" d="M993.03,760.79c-1.77-6.75-4.11-9.5-9.68-11.79c5.57-2.29,7.91-5.05,9.68-11.8
					c1.77,6.75,4.11,9.5,9.68,11.8C997.14,751.28,994.8,754.04,993.03,760.79z"/>
				<path class="st18" d="M993.03,741.5c1.41,3.45,3.36,5.68,6.66,7.49c-3.3,1.81-5.25,4.04-6.66,7.49
					c-1.41-3.45-3.36-5.68-6.66-7.49C989.67,747.18,991.62,744.95,993.03,741.5 M993.03,730.97c-2.29,12.49-4.15,14.97-13.52,18.03
					c9.37,3.06,11.23,5.54,13.52,18.03c2.29-12.49,4.15-14.97,13.52-18.03C997.18,745.93,995.32,743.45,993.03,730.97L993.03,730.97
					z"/>
			</g>
			<g>
				<path class="st25" d="M813.47,817.19c-1.77-6.75-4.11-9.5-9.68-11.79c5.57-2.29,7.91-5.05,9.68-11.8
					c1.77,6.75,4.11,9.5,9.68,11.8C817.58,807.69,815.24,810.45,813.47,817.19z"/>
				<path class="st18" d="M813.47,797.91c1.41,3.45,3.36,5.68,6.66,7.49c-3.3,1.81-5.25,4.04-6.66,7.49
					c-1.41-3.45-3.36-5.68-6.66-7.49C810.11,803.59,812.06,801.35,813.47,797.91 M813.47,787.37c-2.29,12.49-4.15,14.97-13.52,18.03
					c9.37,3.06,11.23,5.54,13.52,18.03c2.29-12.49,4.15-14.97,13.52-18.03C817.62,802.34,815.76,799.86,813.47,787.37L813.47,787.37
					z"/>
			</g>
		</g>
		<g>
			<path class="st25" d="M631.54,581.2c-2.64-10.07-6.14-14.19-14.45-17.62c8.31-3.42,11.81-7.54,14.45-17.62
				c2.64,10.07,6.14,14.19,14.45,17.62C637.68,567.01,634.19,571.13,631.54,581.2z"/>
			<path class="st18" d="M631.54,552.4c2.1,5.15,5.01,8.48,9.94,11.18c-4.93,2.7-7.84,6.03-9.94,11.18
				c-2.1-5.15-5.01-8.48-9.94-11.18C626.53,560.88,629.44,557.55,631.54,552.4 M631.54,536.66c-3.43,18.65-6.2,22.35-20.19,26.92
				c13.99,4.57,16.76,8.27,20.19,26.92c3.43-18.65,6.2-22.35,20.19-26.92C637.74,559.02,634.97,555.32,631.54,536.66L631.54,536.66z
				"/>
		</g>
	</g>
</g>
<g id="BUTTONS">
</g>
</svg>
